<svg width="57" height="57" viewBox="0 0 57 57" fill="none" xmlns="http://www.w3.org/2000/svg">
<g clip-path="url(#clip0_6_239)">
<path d="M21.2092 15.8084C21.297 15.1068 21.6598 14.4687 22.2179 14.0345C22.776 13.6003 23.4837 13.4056 24.1853 13.4931L41.0251 15.5959C41.7268 15.6836 42.3648 16.0464 42.799 16.6045C43.2332 17.1626 43.428 17.8703 43.3405 18.572L41.2376 35.4118C41.139 36.104 40.7723 36.7298 40.2168 37.1543C39.6612 37.5788 38.9611 37.7682 38.2672 37.6815C37.5734 37.5949 36.9414 37.2392 36.5072 36.6911C36.0731 36.143 35.8716 35.4463 35.9462 34.751L37.0703 24.44L17.0754 39.9956C16.5172 40.4299 15.8093 40.6247 15.1075 40.537C14.4057 40.4494 13.7675 40.0866 13.3332 39.5283C12.8989 38.9701 12.7042 38.2623 12.7918 37.5605C12.8795 36.8587 13.2423 36.2204 13.8005 35.7862L33.7955 20.2305L23.5246 18.7845C22.8229 18.6968 22.1849 18.334 21.7507 17.7759C21.3165 17.2178 21.1217 16.5101 21.2092 15.8084Z" fill="#F8F8F8"/>
</g>
<defs>
<clipPath id="clip0_6_239">
<rect width="40" height="40" fill="white" transform="translate(0 24.5616) rotate(-37.8822)"/>
</clipPath>
</defs>
</svg>
