<svg width="52" height="52" viewBox="0 0 52 52" fill="none" xmlns="http://www.w3.org/2000/svg">
<path d="M25.575 29.7083L31 24.2833L36.425 29.7083L40.0417 26.0917L34.6167 20.6667L40.0417 15.2417L36.425 11.625L31 17.05L25.575 11.625L21.9583 15.2417L27.3833 20.6667L21.9583 26.0917L25.575 29.7083ZM15.5 41.3333C14.0792 41.3333 12.8624 40.827 11.8498 39.8143C10.8371 38.8017 10.3316 37.5858 10.3333 36.1667V5.16667C10.3333 3.74584 10.8397 2.52909 11.8523 1.51642C12.865 0.503754 14.0809 -0.00171784 15.5 4.38597e-06H46.5C47.9208 4.38597e-06 49.1376 0.506338 50.1503 1.519C51.1629 2.53167 51.6684 3.74756 51.6667 5.16667V36.1667C51.6667 37.5875 51.1603 38.8043 50.1477 39.8169C49.135 40.8296 47.9191 41.3351 46.5 41.3333H15.5ZM5.16667 51.6667C3.74584 51.6667 2.52909 51.1603 1.51642 50.1477C0.503754 49.135 -0.00171784 47.9191 4.38597e-06 46.5V10.3333H5.16667V46.5H41.3333V51.6667H5.16667Z" fill="#F8F8F8"/>
</svg>
