<svg width="32" height="26" viewBox="0 0 32 26" fill="none" xmlns="http://www.w3.org/2000/svg">
<path d="M28.8 22.75H25.6V8.53125L16 14.625L6.4 8.53125V22.75H3.2V3.25H5.12L16 10.1562L26.88 3.25H28.8M28.8 0H3.2C1.424 0 0 1.44625 0 3.25V22.75C0 23.612 0.337142 24.4386 0.937258 25.0481C1.53737 25.6576 2.35131 26 3.2 26H28.8C29.6487 26 30.4626 25.6576 31.0627 25.0481C31.6629 24.4386 32 23.612 32 22.75V3.25C32 2.38805 31.6629 1.5614 31.0627 0.951903C30.4626 0.34241 29.6487 0 28.8 0Z" fill="white"/>
</svg>
