<svg width="64" height="64" viewBox="0 0 64 64" fill="none" xmlns="http://www.w3.org/2000/svg">
<path d="M21.3334 16C21.3334 17.4145 20.7715 18.771 19.7713 19.7712C18.7711 20.7714 17.4145 21.3333 16 21.3333C14.5855 21.3333 13.229 20.7714 12.2288 19.7712C11.2286 18.771 10.6667 17.4145 10.6667 16C10.6667 14.5855 11.2286 13.2289 12.2288 12.2288C13.229 11.2286 14.5855 10.6667 16 10.6667C17.4145 10.6667 18.7711 11.2286 19.7713 12.2288C20.7715 13.2289 21.3334 14.5855 21.3334 16ZM21.3334 32C21.3334 33.4145 20.7715 34.771 19.7713 35.7712C18.7711 36.7714 17.4145 37.3333 16 37.3333C14.5855 37.3333 13.229 36.7714 12.2288 35.7712C11.2286 34.771 10.6667 33.4145 10.6667 32C10.6667 30.5855 11.2286 29.2289 12.2288 28.2288C13.229 27.2286 14.5855 26.6667 16 26.6667C17.4145 26.6667 18.7711 27.2286 19.7713 28.2288C20.7715 29.2289 21.3334 30.5855 21.3334 32ZM16 53.3333C17.4145 53.3333 18.7711 52.7714 19.7713 51.7712C20.7715 50.771 21.3334 49.4145 21.3334 48C21.3334 46.5855 20.7715 45.229 19.7713 44.2288C18.7711 43.2286 17.4145 42.6667 16 42.6667C14.5855 42.6667 13.229 43.2286 12.2288 44.2288C11.2286 45.229 10.6667 46.5855 10.6667 48C10.6667 49.4145 11.2286 50.771 12.2288 51.7712C13.229 52.7714 14.5855 53.3333 16 53.3333ZM37.3334 16C37.3334 17.4145 36.7715 18.771 35.7713 19.7712C34.7711 20.7714 33.4145 21.3333 32 21.3333C30.5855 21.3333 29.229 20.7714 28.2288 19.7712C27.2286 18.771 26.6667 17.4145 26.6667 16C26.6667 14.5855 27.2286 13.2289 28.2288 12.2288C29.229 11.2286 30.5855 10.6667 32 10.6667C33.4145 10.6667 34.7711 11.2286 35.7713 12.2288C36.7715 13.2289 37.3334 14.5855 37.3334 16ZM32 37.3333C33.4145 37.3333 34.7711 36.7714 35.7713 35.7712C36.7715 34.771 37.3334 33.4145 37.3334 32C37.3334 30.5855 36.7715 29.2289 35.7713 28.2288C34.7711 27.2286 33.4145 26.6667 32 26.6667C30.5855 26.6667 29.229 27.2286 28.2288 28.2288C27.2286 29.2289 26.6667 30.5855 26.6667 32C26.6667 33.4145 27.2286 34.771 28.2288 35.7712C29.229 36.7714 30.5855 37.3333 32 37.3333ZM37.3334 48C37.3334 49.4145 36.7715 50.771 35.7713 51.7712C34.7711 52.7714 33.4145 53.3333 32 53.3333C30.5855 53.3333 29.229 52.7714 28.2288 51.7712C27.2286 50.771 26.6667 49.4145 26.6667 48C26.6667 46.5855 27.2286 45.229 28.2288 44.2288C29.229 43.2286 30.5855 42.6667 32 42.6667C33.4145 42.6667 34.7711 43.2286 35.7713 44.2288C36.7715 45.229 37.3334 46.5855 37.3334 48ZM48 21.3333C49.4145 21.3333 50.7711 20.7714 51.7713 19.7712C52.7715 18.771 53.3334 17.4145 53.3334 16C53.3334 14.5855 52.7715 13.2289 51.7713 12.2288C50.7711 11.2286 49.4145 10.6667 48 10.6667C46.5855 10.6667 45.229 11.2286 44.2288 12.2288C43.2286 13.2289 42.6667 14.5855 42.6667 16C42.6667 17.4145 43.2286 18.771 44.2288 19.7712C45.229 20.7714 46.5855 21.3333 48 21.3333ZM53.3334 32C53.3334 33.4145 52.7715 34.771 51.7713 35.7712C50.7711 36.7714 49.4145 37.3333 48 37.3333C46.5855 37.3333 45.229 36.7714 44.2288 35.7712C43.2286 34.771 42.6667 33.4145 42.6667 32C42.6667 30.5855 43.2286 29.2289 44.2288 28.2288C45.229 27.2286 46.5855 26.6667 48 26.6667C49.4145 26.6667 50.7711 27.2286 51.7713 28.2288C52.7715 29.2289 53.3334 30.5855 53.3334 32ZM48 53.3333C49.4145 53.3333 50.7711 52.7714 51.7713 51.7712C52.7715 50.771 53.3334 49.4145 53.3334 48C53.3334 46.5855 52.7715 45.229 51.7713 44.2288C50.7711 43.2286 49.4145 42.6667 48 42.6667C46.5855 42.6667 45.229 43.2286 44.2288 44.2288C43.2286 45.229 42.6667 46.5855 42.6667 48C42.6667 49.4145 43.2286 50.771 44.2288 51.7712C45.229 52.7714 46.5855 53.3333 48 53.3333Z" fill="#F8F8F8"/>
</svg>
